<svg width="584" height="704" viewBox="0 0 584 704" fill="none" xmlns="http://www.w3.org/2000/svg">
<line x1="498.601" y1="661.966" x2="556.99" y2="330.826" stroke="black" stroke-width="2"/>
<line x1="159.504" y1="662.251" x2="217.893" y2="331.111" stroke="black" stroke-width="2"/>
<mask id="mask0_5:51" style="mask-type:alpha" maskUnits="userSpaceOnUse" x="15" y="466" width="90" height="238">
<rect x="15.5859" y="466" width="89" height="238" fill="#C4C4C4"/>
</mask>
<g mask="url(#mask0_5:51)">
<line x1="30.6011" y1="661.966" x2="88.99" y2="330.826" stroke="black" stroke-width="2"/>
</g>
<line x1="89.5859" y1="330" x2="557.586" y2="330" stroke="black" stroke-width="2"/>
<line x1="31.5859" y1="661" x2="499.586" y2="661" stroke="black" stroke-width="2"/>
<line x1="243.947" y1="615.233" x2="251.601" y2="571.826" stroke="black" stroke-width="2"/>
<line x1="182.601" y1="615.233" x2="190.255" y2="571.826" stroke="black" stroke-width="2"/>
<line x1="191.189" y1="571" x2="252.535" y2="571" stroke="black" stroke-width="2"/>
<line x1="183.586" y1="614.388" x2="244.932" y2="614.388" stroke="black" stroke-width="2"/>
<line x1="304.947" y1="615.233" x2="312.601" y2="571.826" stroke="black" stroke-width="2"/>
<line x1="243.601" y1="615.233" x2="251.255" y2="571.826" stroke="black" stroke-width="2"/>
<line x1="252.189" y1="571" x2="313.535" y2="571" stroke="black" stroke-width="2"/>
<line x1="244.586" y1="614.388" x2="305.932" y2="614.388" stroke="black" stroke-width="2"/>
<line x1="151.947" y1="615.233" x2="159.601" y2="571.826" stroke="black" stroke-width="2"/>
<line x1="90.6011" y1="615.233" x2="98.2549" y2="571.826" stroke="black" stroke-width="2"/>
<line x1="99.1887" y1="571" x2="160.535" y2="571" stroke="black" stroke-width="2"/>
<line x1="91.5859" y1="614.388" x2="152.932" y2="614.388" stroke="black" stroke-width="2"/>
<path d="M1.41406 466.049L88.9961 331.274L218.586 331.5L130 466.274L1 465.274" stroke="black" stroke-width="2"/>
<path d="M60.0859 496L65.5859 465.5H130.586L218.086 331L149.086 496H60.0859Z" fill="black" stroke="black" stroke-width="2"/>
<path d="M367.586 329.5L484.586 108L505.586 106L522.086 115L535.086 135.5L412.586 329.5" stroke="black" stroke-width="2"/>
<path d="M460.086 330C463.253 318.167 473.186 296.3 487.586 303.5C501.986 310.7 489.586 344.167 481.586 360C471.586 377 457.186 411.7 479.586 414.5" stroke="black" stroke-width="2"/>
<path d="M476.285 415.411C480.297 411.15 491.358 404.258 503.513 410.782C515.669 417.306 520.173 419.595 520.906 419.924C523.192 422.84 527.027 430.346 524.084 437.033" stroke="black" stroke-width="2"/>
<path d="M477.592 413.614C477.238 419.52 479.692 432.645 492.333 437.894C504.975 443.144 509.569 445.174 510.286 445.532C513.855 445.42 521.687 443.532 524.458 436.882" stroke="black" stroke-width="2"/>
<ellipse cx="489.037" cy="419.301" rx="4" ry="2" transform="rotate(21 489.037 419.301)" fill="black"/>
<path d="M477.342 414.549L493.586 421" stroke="black"/>
<mask id="mask1_5:51" style="mask-type:alpha" maskUnits="userSpaceOnUse" x="89" y="0" width="344" height="331">
<path d="M89.5859 0H367.586V331H89.5859V0Z" fill="#C4C4C4"/>
<path d="M381.611 179L432.17 205.32L378.146 309.1L327.586 282.78L381.611 179Z" fill="#C4C4C4"/>
</mask>
<g mask="url(#mask1_5:51)">
<rect x="178.557" y="133" width="287" height="177.942" transform="rotate(30 178.557 133)" stroke="black" stroke-width="2"/>
<rect x="185.256" y="145" width="263.449" height="163.34" transform="rotate(30 185.256 145)" stroke="black" stroke-width="2"/>
<circle cx="308.586" cy="340" r="91" stroke="black" stroke-width="2"/>
<path d="M306.586 250V330H343.586C343.419 314.833 348.886 282.9 372.086 276.5" stroke="black" stroke-width="2"/>
<path d="M306.586 250V330H271.563C271.721 314.833 266.546 282.9 244.586 276.5" stroke="black" stroke-width="2"/>
</g>
<path d="M486.588 112.305C504.626 112.986 533.896 141.916 583.586 146C574.768 142.366 561.707 135.585 550.185 126.725C554.458 128.917 567.741 131.735 575.475 133.162C575.962 133.358 576.291 133.422 576.439 133.337C576.128 133.282 575.807 133.223 575.475 133.162C572.888 132.12 565.824 127.355 557.517 121.425C558.658 122.242 563.346 121.765 565.548 121.425C548.939 116.252 531.798 97.9408 525.304 89.4319C523.054 64.0795 498.668 44.022 486.588 37.0871C483.638 30.9608 473.519 18.9804 456.638 20.0695C439.757 21.1586 434.402 27.1035 433.835 29.9397C425.893 29.009 408.309 30.4148 405.586 33.9545L433.835 37.0871L406.607 38.7194C416.364 40.354 435.468 44.154 433.835 46.2767C440.755 47.5246 454.596 52.5392 454.596 62.6136C455.584 66.0863 456.946 70.3035 458.617 74.7968C462.722 87.1629 471.272 111.827 472.634 111.555L471.953 101.509C476.428 107.76 481.41 112.11 486.588 112.305Z" fill="black"/>
<path d="M486.588 37.0871L454.596 62.6136M486.588 37.0871C483.638 30.9608 473.519 18.9804 456.638 20.0695C439.756 21.1586 434.402 27.1035 433.835 29.9397C425.893 29.009 408.309 30.4148 405.586 33.9545L433.835 37.0871L406.607 38.7194C416.364 40.354 435.468 44.154 433.835 46.2767C440.755 47.5246 454.596 52.5391 454.596 62.6136M486.588 37.0871C498.668 44.022 523.054 64.0795 525.304 89.4319M454.596 62.6136C455.584 66.0863 456.946 70.3035 458.617 74.7968M527.189 98.9618C526.194 96.2067 525.568 93.389 525.387 90.5225C525.364 90.1579 525.336 89.7944 525.304 89.4319M527.189 98.9618C530.782 108.909 539.191 118.04 548.871 125.7M527.189 98.9618C535.145 105.028 547.275 114.113 557.517 121.425M548.871 125.7C560.702 135.062 574.431 142.227 583.586 146C533.896 141.916 504.626 112.986 486.588 112.305C481.41 112.11 476.428 107.76 471.953 101.509M548.871 125.7C549.96 128.031 567.703 131.763 576.439 133.337C575.503 133.872 567.387 128.472 557.517 121.425M525.304 89.4319C531.798 97.9408 548.939 116.252 565.548 121.425C563.346 121.765 558.658 122.242 557.517 121.425M458.617 74.7968C462.722 87.1629 471.272 111.827 472.634 111.555L471.953 101.509M458.617 74.7968C461.985 83.8571 466.607 94.0404 471.953 101.509" stroke="black"/>
<path d="M467.586 220.448L512.781 150.621" stroke="black" stroke-width="3"/>
<path d="M514.586 146.166L523.586 132.323" stroke="black" stroke-width="3"/>
<path d="M182.086 224L238.586 204.5" stroke="black" stroke-width="2"/>
<path d="M195.586 302L234.586 288" stroke="black" stroke-width="2"/>
<path d="M155.586 275L282.586 232" stroke="black" stroke-width="2"/>
</svg>
